<mxfile>
    <diagram id="8BT_zbUlcfIXwjmdEKF9" name="Page-1">
        <mxGraphModel dx="695" dy="526" grid="0" gridSize="10" guides="1" tooltips="1" connect="1" arrows="1" fold="1" page="1" pageScale="1" pageWidth="827" pageHeight="1169" background="#ffffff" math="0" shadow="0">
            <root>
                <mxCell id="0"/>
                <mxCell id="1" parent="0"/>
                <mxCell id="12" style="edgeStyle=orthogonalEdgeStyle;rounded=0;orthogonalLoop=1;jettySize=auto;html=1;labelBackgroundColor=none;strokeColor=#1A1A1A;fontColor=#1A1A1A;" edge="1" parent="1" source="5" target="9">
                    <mxGeometry relative="1" as="geometry"/>
                </mxCell>
                <mxCell id="5" value="生产者1" style="rounded=1;whiteSpace=wrap;html=1;fillColor=#6d8764;strokeColor=#3A5431;fontColor=#ffffff;" parent="1" vertex="1">
                    <mxGeometry x="190" y="175" width="120" height="60" as="geometry"/>
                </mxCell>
                <mxCell id="18" style="edgeStyle=orthogonalEdgeStyle;rounded=0;orthogonalLoop=1;jettySize=auto;html=1;entryX=0;entryY=0.5;entryDx=0;entryDy=0;labelBackgroundColor=none;strokeColor=#1A1A1A;fontColor=#1A1A1A;" edge="1" parent="1" source="9" target="17">
                    <mxGeometry relative="1" as="geometry"/>
                </mxCell>
                <mxCell id="21" style="edgeStyle=orthogonalEdgeStyle;rounded=0;orthogonalLoop=1;jettySize=auto;html=1;entryX=0;entryY=0.5;entryDx=0;entryDy=0;labelBackgroundColor=none;strokeColor=#1A1A1A;fontColor=#1A1A1A;" edge="1" parent="1" source="9" target="19">
                    <mxGeometry relative="1" as="geometry"/>
                </mxCell>
                <mxCell id="22" style="edgeStyle=orthogonalEdgeStyle;rounded=0;orthogonalLoop=1;jettySize=auto;html=1;labelBackgroundColor=none;strokeColor=#1A1A1A;fontColor=#1A1A1A;" edge="1" parent="1" source="9" target="20">
                    <mxGeometry relative="1" as="geometry"/>
                </mxCell>
                <mxCell id="9" value="消息&lt;br&gt;缓冲区" style="rounded=1;whiteSpace=wrap;html=1;fillColor=#a0522d;strokeColor=#6D1F00;fontColor=#ffffff;" vertex="1" parent="1">
                    <mxGeometry x="408" y="200.5" width="63" height="153" as="geometry"/>
                </mxCell>
                <mxCell id="14" style="edgeStyle=orthogonalEdgeStyle;rounded=0;orthogonalLoop=1;jettySize=auto;html=1;entryX=0;entryY=0.5;entryDx=0;entryDy=0;labelBackgroundColor=none;strokeColor=#1A1A1A;fontColor=#1A1A1A;" edge="1" parent="1" source="13" target="9">
                    <mxGeometry relative="1" as="geometry"/>
                </mxCell>
                <mxCell id="13" value="生产者2" style="rounded=1;whiteSpace=wrap;html=1;fillColor=#6d8764;strokeColor=#3A5431;fontColor=#ffffff;" vertex="1" parent="1">
                    <mxGeometry x="190" y="247" width="120" height="60" as="geometry"/>
                </mxCell>
                <mxCell id="16" style="edgeStyle=orthogonalEdgeStyle;rounded=0;orthogonalLoop=1;jettySize=auto;html=1;entryX=0;entryY=0.5;entryDx=0;entryDy=0;labelBackgroundColor=none;strokeColor=#1A1A1A;fontColor=#1A1A1A;" edge="1" parent="1" source="15" target="9">
                    <mxGeometry relative="1" as="geometry"/>
                </mxCell>
                <mxCell id="15" value="生产者3" style="rounded=1;whiteSpace=wrap;html=1;fillColor=#6d8764;strokeColor=#3A5431;fontColor=#ffffff;" vertex="1" parent="1">
                    <mxGeometry x="190" y="325" width="120" height="60" as="geometry"/>
                </mxCell>
                <mxCell id="17" value="消费者1" style="rounded=1;whiteSpace=wrap;html=1;fillColor=#6d8764;strokeColor=#3A5431;fontColor=#ffffff;" vertex="1" parent="1">
                    <mxGeometry x="557" y="175" width="120" height="60" as="geometry"/>
                </mxCell>
                <mxCell id="19" value="消费者2" style="rounded=1;whiteSpace=wrap;html=1;fillColor=#6d8764;strokeColor=#3A5431;fontColor=#ffffff;" vertex="1" parent="1">
                    <mxGeometry x="559" y="247" width="120" height="60" as="geometry"/>
                </mxCell>
                <mxCell id="20" value="消费者3" style="rounded=1;whiteSpace=wrap;html=1;fillColor=#6d8764;strokeColor=#3A5431;fontColor=#ffffff;" vertex="1" parent="1">
                    <mxGeometry x="557" y="319" width="120" height="60" as="geometry"/>
                </mxCell>
                <mxCell id="23" value="" style="whiteSpace=wrap;html=1;aspect=fixed;fontColor=#1A1A1A;fillColor=none;strokeWidth=3;" vertex="1" parent="1">
                    <mxGeometry x="537" y="151" width="160" height="160" as="geometry"/>
                </mxCell>
                <mxCell id="24" value="Group" style="whiteSpace=wrap;html=1;aspect=fixed;strokeWidth=1;fontColor=#1A1A1A;strokeColor=none;fillColor=none;" vertex="1" parent="1">
                    <mxGeometry x="593" y="137" width="43" height="43" as="geometry"/>
                </mxCell>
            </root>
        </mxGraphModel>
    </diagram>
    <diagram id="DP-l6AZAf-vOO0tLnYna" name="Page-3">
        <mxGraphModel dx="834" dy="631" grid="0" gridSize="10" guides="1" tooltips="1" connect="1" arrows="1" fold="1" page="1" pageScale="1" pageWidth="827" pageHeight="1169" background="#ffffff" math="0" shadow="0">
            <root>
                <mxCell id="Wc1lUOMoQVlbfa1tMs2v-0"/>
                <mxCell id="Wc1lUOMoQVlbfa1tMs2v-1" parent="Wc1lUOMoQVlbfa1tMs2v-0"/>
                <mxCell id="V8n1_aN9cY00SeAdYCYn-0" value="" style="rounded=1;whiteSpace=wrap;html=1;strokeWidth=1;fillColor=#d5e8d4;strokeColor=#82b366;" vertex="1" parent="Wc1lUOMoQVlbfa1tMs2v-1">
                    <mxGeometry x="297" y="45.5" width="210" height="378" as="geometry"/>
                </mxCell>
                <mxCell id="V8n1_aN9cY00SeAdYCYn-1" value="" style="rounded=1;whiteSpace=wrap;html=1;strokeWidth=1;fillColor=#d5e8d4;strokeColor=#82b366;" vertex="1" parent="Wc1lUOMoQVlbfa1tMs2v-1">
                    <mxGeometry x="66" y="71.5" width="152" height="305" as="geometry"/>
                </mxCell>
                <mxCell id="V8n1_aN9cY00SeAdYCYn-2" value="" style="rounded=1;whiteSpace=wrap;html=1;strokeWidth=1;fillColor=#d5e8d4;strokeColor=#82b366;" vertex="1" parent="Wc1lUOMoQVlbfa1tMs2v-1">
                    <mxGeometry x="600" y="71.5" width="138" height="311" as="geometry"/>
                </mxCell>
                <mxCell id="V8n1_aN9cY00SeAdYCYn-8" style="rounded=0;orthogonalLoop=1;jettySize=auto;html=1;labelBackgroundColor=none;strokeColor=#1A1A1A;fontColor=#1A1A1A;" edge="1" parent="Wc1lUOMoQVlbfa1tMs2v-1" source="V8n1_aN9cY00SeAdYCYn-3">
                    <mxGeometry relative="1" as="geometry">
                        <mxPoint x="298.0758426265879" y="118.68456709013026" as="targetPoint"/>
                    </mxGeometry>
                </mxCell>
                <mxCell id="V8n1_aN9cY00SeAdYCYn-9" style="rounded=0;orthogonalLoop=1;jettySize=auto;html=1;entryX=0;entryY=0.5;entryDx=0;entryDy=0;labelBackgroundColor=none;strokeColor=#1A1A1A;fontColor=#1A1A1A;" edge="1" parent="Wc1lUOMoQVlbfa1tMs2v-1">
                    <mxGeometry relative="1" as="geometry">
                        <mxPoint x="194" y="130" as="sourcePoint"/>
                        <mxPoint x="299" y="286.5" as="targetPoint"/>
                    </mxGeometry>
                </mxCell>
                <mxCell id="V8n1_aN9cY00SeAdYCYn-3" value="&lt;font style=&quot;font-size: 14px&quot;&gt;&lt;b&gt;Producer&lt;/b&gt;&lt;/font&gt;" style="rounded=0;whiteSpace=wrap;html=1;strokeWidth=1;fillColor=#6d8764;fontColor=#ffffff;strokeColor=#3A5431;" vertex="1" parent="Wc1lUOMoQVlbfa1tMs2v-1">
                    <mxGeometry x="95" y="111" width="94" height="38" as="geometry"/>
                </mxCell>
                <mxCell id="V8n1_aN9cY00SeAdYCYn-10" style="rounded=0;orthogonalLoop=1;jettySize=auto;html=1;labelBackgroundColor=none;strokeColor=#1A1A1A;fontColor=#1A1A1A;" edge="1" parent="Wc1lUOMoQVlbfa1tMs2v-1" source="V8n1_aN9cY00SeAdYCYn-4">
                    <mxGeometry relative="1" as="geometry">
                        <mxPoint x="298.2157559638297" y="205.18049929837298" as="targetPoint"/>
                    </mxGeometry>
                </mxCell>
                <mxCell id="V8n1_aN9cY00SeAdYCYn-4" value="&lt;font style=&quot;font-size: 14px&quot;&gt;&lt;b&gt;Producer&lt;/b&gt;&lt;/font&gt;" style="rounded=0;whiteSpace=wrap;html=1;strokeWidth=1;fillColor=#6d8764;fontColor=#ffffff;strokeColor=#3A5431;" vertex="1" parent="Wc1lUOMoQVlbfa1tMs2v-1">
                    <mxGeometry x="95" y="205" width="94" height="38" as="geometry"/>
                </mxCell>
                <mxCell id="V8n1_aN9cY00SeAdYCYn-11" value="&lt;font style=&quot;font-size: 14px&quot;&gt;&lt;b&gt;Partiton1&lt;/b&gt;&lt;/font&gt;" style="rounded=1;whiteSpace=wrap;html=1;strokeWidth=1;fontColor=#ffffff;strokeColor=#BD7000;fillColor=#BD8008;" vertex="1" parent="Wc1lUOMoQVlbfa1tMs2v-1">
                    <mxGeometry x="338" y="91" width="132" height="41" as="geometry"/>
                </mxCell>
                <mxCell id="V8n1_aN9cY00SeAdYCYn-12" value="&lt;font style=&quot;font-size: 14px&quot;&gt;&lt;b&gt;Partiton2&lt;/b&gt;&lt;/font&gt;" style="rounded=1;whiteSpace=wrap;html=1;strokeWidth=1;fontColor=#ffffff;strokeColor=#BD7000;fillColor=#BD8008;" vertex="1" parent="Wc1lUOMoQVlbfa1tMs2v-1">
                    <mxGeometry x="338" y="167" width="132" height="41" as="geometry"/>
                </mxCell>
                <mxCell id="V8n1_aN9cY00SeAdYCYn-13" value="&lt;font style=&quot;font-size: 14px&quot;&gt;&lt;b&gt;Partiton3&lt;/b&gt;&lt;/font&gt;" style="rounded=1;whiteSpace=wrap;html=1;strokeWidth=1;fontColor=#ffffff;strokeColor=#BD7000;fillColor=#BD8008;" vertex="1" parent="Wc1lUOMoQVlbfa1tMs2v-1">
                    <mxGeometry x="336" y="239" width="132" height="41" as="geometry"/>
                </mxCell>
                <mxCell id="V8n1_aN9cY00SeAdYCYn-14" value="&lt;font style=&quot;font-size: 14px&quot;&gt;&lt;b&gt;Partiton4&lt;/b&gt;&lt;/font&gt;" style="rounded=1;whiteSpace=wrap;html=1;strokeWidth=1;fontColor=#ffffff;strokeColor=#BD7000;fillColor=#BD8008;" vertex="1" parent="Wc1lUOMoQVlbfa1tMs2v-1">
                    <mxGeometry x="338" y="319" width="132" height="41" as="geometry"/>
                </mxCell>
            </root>
        </mxGraphModel>
    </diagram>
</mxfile>